<?xml version="1.0" encoding="utf-8"?>
<!-- Generator: Adobe Illustrator 25.0.1, SVG Export Plug-In . SVG Version: 6.00 Build 0)  -->
<svg version="1.1" id="Ebene_1" xmlns:serif="http://www.serif.com/"
	 xmlns="http://www.w3.org/2000/svg" xmlns:xlink="http://www.w3.org/1999/xlink" x="0px" y="0px" viewBox="0 0 830.4 830.4"
	 style="enable-background:new 0 0 830.4 830.4;" xml:space="preserve">
<style type="text/css">
	.st0{fill:none;stroke:#7B723B;stroke-width:30.0044;stroke-linecap:round;stroke-linejoin:round;stroke-miterlimit:1.9358;}
	.st1{fill-rule:evenodd;clip-rule:evenodd;fill:#A89B50;}
	.st2{fill:none;stroke:#A89B50;stroke-width:40.97;stroke-linecap:round;stroke-linejoin:round;stroke-miterlimit:1.5;}
	.st3{fill-rule:evenodd;clip-rule:evenodd;fill:#53493A;}
	.st4{fill-rule:evenodd;clip-rule:evenodd;fill:#98866D;}
	.st5{fill-rule:evenodd;clip-rule:evenodd;fill:#CCC3B6;}
	.st6{fill-rule:evenodd;clip-rule:evenodd;fill:#9F604F;}
	.st7{fill-rule:evenodd;clip-rule:evenodd;fill:#53493B;}
	.st8{fill-rule:evenodd;clip-rule:evenodd;fill:#CD9033;}
	.st9{fill-rule:evenodd;clip-rule:evenodd;fill:#AA7626;}
	.st10{fill-rule:evenodd;clip-rule:evenodd;fill:#537D35;}
	.st11{fill-rule:evenodd;clip-rule:evenodd;fill:url(#SVGID_1_);}
</style>
<g transform="matrix(1.19492,0,0,1.19492,-97.4596,-51.7673)">
	<g>
		<path class="st0" d="M-994.3,356.7v285.8"/>
		<g transform="matrix(1,0,0,1,-74.0708,0)">
			<path class="st0" d="M-1017.7,356.7l26.2,285.8"/>
		</g>
		<g transform="matrix(1,0,0,1,-152.05,0)">
			<path class="st0" d="M-1037.9,356.7l53.3,285.8"/>
		</g>
		<g transform="matrix(-1,0,0,1,1074.07,0)">
			<path class="st0" d="M1971,356.7l26.2,285.8"/>
		</g>
		<g transform="matrix(-1,0,0,1,1152.05,0)">
			<path class="st0" d="M1950.8,356.7l53.3,285.8"/>
		</g>
		<path class="st0" d="M-1261.1,499.5h533.6"/>
	</g>
	<g>
		<path class="st1" d="M-755.4,665.7l91.3-334h-660.7l91.3,334H-755.4z M-797.2,627.3l71.2-257.2h-536.7l71.2,257.2H-797.2z"/>
		<g transform="matrix(0.830724,0,0,0.756392,84.638,97.1331)">
			<path class="st2" d="M-1464.5,321.5c0,0-14.8-237.1,165.6-237.1s165.6,237.1,165.6,237.1"/>
		</g>
	</g>
</g>
<g transform="matrix(1.18735,-0.685519,0.685519,1.18735,-417.641,290.662)">
	<g transform="matrix(0.937149,0,0,0.831944,31.4254,71.7529)">
		<path class="st3" d="M-84.2,12.5c0,0-1.1,0.8-5.2,6.9c-0.9,1.4-1.6,2.2-2.4,4.1c-0.4,0.9-0.5,1.7-0.8,2.8
			c-0.3,1.3-0.6,2.6-0.8,4.1c-0.5,4.7-0.2,10.3-0.3,16.6c-0.2,19.4-0.4,45.6-0.4,74.5c0,57.3-0.1,125.6,0.6,173.8
			c0.5,36.9,1.6,62.1,1.6,62.1c0,10,7.2,18.2,16.1,18.2s16.1-8.1,16.1-18.2c0,0,1-25.2,1.6-62.1c0.7-48.3,0.7-116.5,0.6-173.8
			c0-28.9-0.2-55.1-0.4-74.5c-0.1-6.3,0.2-11.9-0.3-16.6c-0.2-1.5-0.5-2.8-0.8-4.1c-0.2-1-0.4-1.9-0.8-2.8c-0.8-2-1.5-2.7-2.4-4.1
			c-4.1-6.1-5.2-6.9-5.2-6.9c0-5.3-3.8-9.5-8.5-9.5C-80.4,2.9-84.2,7.2-84.2,12.5z"/>
	</g>
	<g transform="matrix(0.613888,0,0,0.544972,193.056,138.386)">
		<g transform="matrix(1.27406,0,0,1.51809,-136.518,-357.653)">
			
				<rect x="-218.3" y="138.1" transform="matrix(-0.9986 -5.300231e-02 5.300231e-02 -0.9986 -389.0921 325.7354)" class="st4" width="56.1" height="59.9"/>
		</g>
		<g transform="matrix(1,0,0,1.30072,0,-59.3644)">
			<path class="st4" d="M-378.9-361.4c0,0-4.5,3.2-10.2,15c-0.6,1.2-0.7,2.4-1.2,3.8c-1.6,5.2-3.7,10.6-5.4,17.5
				c-1.9,7.9-3.7,16.5-4.8,26.3c-1.9,17.9-1.5,38.5-2,60c-0.7,29.8-0.8,61.4-0.9,90c-0.1,18.3-0.1,35.3,0.2,50c0.6,30,1.8,50,1.8,50
				h44.8c0,0,1.2-20,1.8-50c0.3-14.7,0.3-31.8,0.2-50c-0.1-28.6-0.3-60.2-0.9-90c-0.5-21.5-0.1-42.1-2-60
				c-1.1-9.8-2.9-18.4-4.8-26.3c-1.7-6.9-3.8-12.3-5.4-17.5c-0.4-1.4-0.6-2.6-1.2-3.8C-374.4-358.2-378.9-361.4-378.9-361.4z"/>
		</g>
		<g transform="matrix(1,0,0,1.30072,0,-59.3644)">
			<path class="st4" d="M-488-361.4c-4.3,5.4-7.6,7.9-10.9,13.7c-3.9,6.9-5.5,13.7-7.6,21.1c-2.1,7.1-3.7,14.1-4.8,21.3
				c-1.5,10.7-1.4,21.5-1.7,32.2c-0.9,42,1.3,83.7,5.2,125c1.3,13.9,2.9,27.7,4.9,41.4c2,13.8,4.7,27.5,7.2,41.2l44.5-4.9
				c-1.7-15.5-2.9-31-4.4-46.5c-1.5-15.4-3.2-30.9-4.6-46.4c-2.6-27.7-4.4-55.5-5.9-83.5c-1-18.5-0.6-37.1-2.5-55.7
				c-0.8-8.3-2.4-16.3-4.2-24.5c-1.3-5.8-3.1-10.8-4.7-16.5c-0.3-1.2-0.5-2.4-1-3.5C-481.4-353-484.4-355.7-488-361.4z"/>
		</g>
		<g transform="matrix(-1,0,0,1.30072,1000,-59.3644)">
			<path class="st4" d="M1269.7-361.4c3.7,5.7,6.6,8.4,9.4,14.5c0.5,1.2,0.7,2.3,1,3.5c1.6,5.7,3.4,10.7,4.7,16.5
				c1.9,8.2,3.4,16.2,4.2,24.5c1.9,18.6,1.5,37.2,2.5,55.7c1.5,28,3.4,55.8,5.9,83.5c1.4,15.5,3.1,30.9,4.6,46.4
				c1.5,15.5,2.7,31,4.4,46.5l-44.5,4.9c-2.6-13.7-5.2-27.4-7.2-41.2c-2-13.8-3.6-27.6-4.9-41.4c-3.9-41.3-6.1-83-5.2-125
				c0.2-10.7,0.2-21.5,1.7-32.2c1-7.3,2.7-14.2,4.8-21.3c2.2-7.4,3.7-14.2,7.6-21.1C1262.1-353.6,1265.4-356.1,1269.7-361.4z"/>
		</g>
		<g transform="matrix(-1,0,0,1.30072,1000,-59.3644)">
			<path class="st4" d="M1175.1-361.4c2.9,7.3,6.2,12.9,8.5,20.9c0.5,1.7,0.6,3.4,0.9,5.1c1.3,7.9,2.9,15.5,4,23.8
				c1.5,11.6,2.9,23.3,3.6,35.4c2.5,43.1,3,87.5,11.3,122.9c4.2,17.8,9.6,33.2,17.6,44.4c4.5,6.3,9.3,11.2,16.3,12.5
				c17.8,3.4,36.9,5.3,55,6.7c45.6,3.5,85.2,2.4,85.2,2.4l2.9,38.7c0,0-34.1,3-76.4,1.6c-24.6-0.8-51.9-3.3-77.1-8
				c-19.2-3.6-35.4-14.4-47.5-31.9c-10.3-14.8-18.1-35-23-58.6c-7.9-38-11.5-85.5-7-131.4c1.2-12.3,3.4-24.3,6.1-36
				c1.9-8.3,4.3-15.9,6.7-23.7c0.5-1.7,0.8-3.4,1.6-5.1C1167-349.3,1171-354.5,1175.1-361.4z"/>
		</g>
		<g transform="matrix(1,0,0,1.30072,0,-59.3644)">
			<path class="st4" d="M-582.7-361.4c-4.1,6.9-8.1,12.1-11.5,19.9c-0.7,1.7-1,3.3-1.6,5.1c-2.3,7.8-4.8,15.4-6.7,23.7
				c-2.7,11.8-4.9,23.7-6.1,36c-4.5,45.9-0.8,93.4,7,131.4c4.9,23.6,12.7,43.8,23,58.6c12.2,17.4,28.3,28.2,47.5,31.9
				c25.2,4.7,52.5,7.2,77.1,8c42.4,1.4,76.4-1.6,76.4-1.6l-2.9-38.7c0,0-39.6,1.1-85.2-2.4c-18.1-1.4-37.2-3.3-55-6.7
				c-7-1.3-11.8-6.2-16.3-12.5c-7.9-11.2-13.3-26.6-17.6-44.4c-8.4-35.4-8.8-79.8-11.3-122.9c-0.7-12.1-2.1-23.8-3.6-35.4
				c-1.1-8.3-2.7-15.9-4-23.8c-0.3-1.8-0.4-3.4-0.9-5.1C-576.5-348.6-579.7-354.1-582.7-361.4z"/>
		</g>
	</g>
</g>
<g transform="matrix(1.58653,0,0,1.58653,-293.267,-293.267)">
	<g>
		<g transform="matrix(1,0,0,1,-10.7366,46.6069)">
			<path class="st5" d="M645.8,388.7L457.3,221.9L268.8,388.7V619h377V388.7z"/>
		</g>
		<path class="st6" d="M446.6,287.8L231.3,477.9l-19.2-21.7L437,257.6c5.5-4.8,13.7-4.8,19.2,0L681,456.2l-19.2,21.7L446.6,287.8z"
			/>
	</g>
	<g>
		<g transform="matrix(1,0,0,1,-10.7283,0)">
			<g transform="matrix(0.90575,0,0,1,215.332,7.98279)">
				
					<rect x="293.6" y="465.7" transform="matrix(-0.9359 0.3522 -0.3522 -0.9359 845.6773 872.7283)" class="st7" width="99.7" height="95.2"/>
			</g>
			<g transform="matrix(1,0,0,1,167.205,0)">
				<path class="st5" d="M353.9,462v125.7h10.5V462H353.9z"/>
			</g>
		</g>
		<g transform="matrix(1,0,0,1,10.7973,0)">
			<g transform="matrix(0.90575,0,0,1,48.1266,7.98279)">
				
					<rect x="301.3" y="466.2" transform="matrix(-0.9465 0.3226 -0.3226 -0.9465 850.2493 885.6608)" class="st7" width="100.9" height="94.2"/>
			</g>
			<path class="st5" d="M361.4,462v125.7H372V462H361.4z"/>
		</g>
		<g transform="matrix(6.12323e-17,1,-2.32058,1.42094e-16,1801.74,140.803)">
			<path class="st5" d="M377.2,521.1v125.7h6.6V521.1H377.2z"/>
		</g>
	</g>
</g>
<g transform="matrix(1.2855,0,0,1.2855,-142.751,-73.8178)">
	<g>
		<g transform="matrix(0.7683,0,0,1,115.85,0)">
			<path class="st8" d="M-2169,641.9c0,0,93.4,9.1,183.9-24.3c98-36.1,121.9-135.3,111.7-187.1c-13.9-70.2-83.2-136.4-139.4-145.5
				c-111.6-18-156.2,11.3-156.2,11.3s-44.6-29.3-156.2-11.3c-56.3,9.1-125.6,75.3-139.4,145.5c-10.2,51.8,13.7,150.9,111.7,187.1
				C-2262.4,651-2169,641.9-2169,641.9"/>
		</g>
		<path class="st9" d="M-1550.6,296.4c0,0-117-37.7-152,87.1s18.8,205.2,54.7,230.3c37.9,26.5,97.3,28.1,97.3,28.1s-44.7-4.3-83-36
			c-34.9-28.8-52.9-81.9-50.2-144.7c2.9-66.7,16.6-111.4,43-135C-1599.5,289.1-1550.6,296.4-1550.6,296.4z"/>
		<g transform="matrix(0.407765,0,0,1,296.118,0)">
			<path class="st9" d="M-4528.8,296.4c0,0-127.5,2.1-152,87.1c-36,124.7,7.1,187.1,43,212.2c37.9,26.5,109,46.3,109,46.3
				s-23.3-7.4-61.6-39.1c-34.9-28.8-49.2-78.9-46.5-141.7c2.9-66.7,5.8-107.2,33.2-130.6C-4568.3,300.3-4528.8,296.4-4528.8,296.4z"
				/>
		</g>
		<g transform="matrix(-1,0,0,1,1000,0)">
			<path class="st9" d="M2550.6,296.4c0,0-117-37.7-152,87.1c-35,124.7,18.8,205.2,54.7,230.3c37.9,26.5,97.3,28.1,97.3,28.1
				s-44.7-4.3-83-36c-34.9-28.8-52.9-81.9-50.2-144.7c2.9-66.7,16.6-111.4,43-135C2501.7,289.1,2550.6,296.4,2550.6,296.4z"/>
		</g>
		<g transform="matrix(-0.407765,0,0,1,703.882,0)">
			<path class="st9" d="M5528.8,296.4c0,0-127.5,2.1-152,87.1c-36,124.7,7.1,187.1,43,212.2c37.9,26.5,109,46.3,109,46.3
				s-23.3-7.4-61.6-39.1c-34.9-28.8-49.2-78.9-46.5-141.7c2.9-66.7,6.3-107.1,33.2-130.6C5491,298.1,5528.8,296.4,5528.8,296.4z"/>
		</g>
	</g>
	<g transform="matrix(1.30059,0,0,1.30059,-150.296,-107.974)">
		<g transform="matrix(1.5721,0,0,1.5721,-287.381,-175.417)">
			<path class="st10" d="M-539.7,295.6c6.7,7.9,9.3,16.8,8.5,26.5c11-1.5,20.7,0.1,28.4,7.1c8.9-6,18.5-10,30.4-7.4
				c0-9.4,1.7-18.4,8.1-26.7c-13.3-2.2-26.1-7-38.5-15.3C-515.1,286.9-527.4,292-539.7,295.6z"/>
		</g>
		
			<linearGradient id="SVGID_1_" gradientUnits="userSpaceOnUse" x1="-886.7346" y1="696.0623" x2="-885.8724" y2="696.0623" gradientTransform="matrix(-22.8181 259.098 259.098 22.8181 -201639.8125 214042.6562)">
			<stop  offset="0" style="stop-color:#8CC26E"/>
			<stop  offset="0.54" style="stop-color:#80B362"/>
			<stop  offset="1" style="stop-color:#537D35"/>
		</linearGradient>
		<path class="st11" d="M-1090,288.8c17.8-35.3,7.1-80.8,30-114.6l35.8,16.1c-26.3,27.8-38,52.3-41,98.5c0,0,1.6,11.6,11.6,20.5
			c10,8.8-51.4,1.6-51.4,1.6S-1095.9,300.4-1090,288.8z"/>
	</g>
</g>
</svg>
