<?xml version="1.0" encoding="UTF-8" standalone="no"?>
<!DOCTYPE svg PUBLIC "-//W3C//DTD SVG 1.1//EN" "http://www.w3.org/Graphics/SVG/1.1/DTD/svg11.dtd">
<svg width="100%" height="100%" viewBox="0 0 1000 1000" version="1.1" xmlns="http://www.w3.org/2000/svg" xmlns:xlink="http://www.w3.org/1999/xlink" xml:space="preserve" xmlns:serif="http://www.serif.com/" style="fill-rule:evenodd;clip-rule:evenodd;stroke-linejoin:round;stroke-miterlimit:2;">
    <g transform="matrix(1.18735,-0.685519,0.685519,1.18735,-417.641,290.662)">
        <g transform="matrix(0.937149,0,0,0.831944,31.4254,71.7529)">
            <path d="M492.168,467.944C492.168,467.944 491.148,468.64 487.341,474.331C486.465,475.641 485.856,476.322 485.081,478.164C484.745,478.964 484.6,479.77 484.383,480.719C484.105,481.934 483.815,483.15 483.673,484.551C483.233,488.908 483.459,494.083 483.39,499.881C483.176,517.875 483.045,542.09 483.023,568.867C482.979,621.957 482.964,685.12 483.615,729.833C484.112,763.965 485.078,787.322 485.078,787.322C485.078,796.599 491.764,804.131 500,804.131C508.236,804.131 514.922,796.599 514.922,787.322C514.922,787.322 515.888,763.966 516.385,729.834C517.036,685.121 517.021,621.958 516.977,568.868C516.955,542.09 516.824,517.875 516.61,499.881C516.541,494.083 516.767,488.908 516.327,484.551C516.185,483.15 515.895,481.934 515.617,480.719C515.4,479.77 515.255,478.963 514.919,478.164C514.144,476.321 513.535,475.641 512.659,474.331C508.852,468.64 507.832,467.944 507.832,467.944C507.832,463.074 504.323,459.121 500,459.121C495.677,459.121 492.168,463.074 492.168,467.944Z" style="fill:rgb(83,73,58);"/>
        </g>
        <g transform="matrix(0.613888,0,0,0.544972,193.056,138.386)">
            <g transform="matrix(1.27406,0,0,1.51809,-136.518,-357.653)">
                <rect x="472.752" y="599.171" width="53.689" height="53.689" style="fill:rgb(152,134,109);"/>
            </g>
            <g transform="matrix(1,0,0,1.30072,0,-59.3644)">
                <path d="M500,197.406C500,197.406 495.876,200.372 490.582,211.301C490.055,212.39 489.888,213.516 489.5,214.774C488.02,219.572 486.103,224.579 484.545,230.985C482.776,238.257 481.09,246.241 480.117,255.3C478.336,271.875 478.688,290.979 478.25,310.879C477.643,338.5 477.466,367.72 477.384,394.247C477.332,411.149 477.305,426.96 477.58,440.562C478.139,468.325 479.251,486.877 479.251,486.877L520.749,486.877C520.749,486.877 521.861,468.325 522.42,440.562C522.695,426.959 522.668,411.149 522.616,394.246C522.534,367.719 522.357,338.499 521.75,310.878C521.312,290.979 521.664,271.875 519.883,255.3C518.91,246.241 517.224,238.257 515.455,230.985C513.897,224.579 511.98,219.572 510.5,214.775C510.112,213.516 509.945,212.39 509.418,211.301C504.124,200.372 500,197.406 500,197.406Z" style="fill:rgb(152,134,109);"/>
            </g>
            <g transform="matrix(1,0,0,1.30072,0,-59.3644)">
                <path d="M398.935,197.406C394.919,202.388 391.901,204.685 388.818,210.125C385.202,216.507 383.759,222.834 381.742,229.698C379.8,236.31 378.28,242.71 377.331,249.46C375.94,259.359 375.99,269.323 375.771,279.249C374.911,318.121 376.944,356.711 380.556,394.988C381.767,407.819 383.21,420.618 385.091,433.356C386.975,446.122 389.41,458.783 391.801,471.461L432.967,466.932C431.423,452.613 430.326,438.272 428.929,423.91C427.538,409.62 425.979,395.326 424.656,380.988C422.29,355.339 420.536,329.578 419.157,303.667C418.245,286.519 418.585,269.279 416.844,252.049C416.065,244.338 414.642,236.983 412.929,229.354C411.73,224.018 410.046,219.392 408.566,214.092C408.248,212.953 408.135,211.899 407.637,210.809C405.076,205.199 402.32,202.697 398.935,197.406Z" style="fill:rgb(152,134,109);"/>
            </g>
            <g transform="matrix(-1,0,0,1.30072,1000,-59.3644)">
                <path d="M398.935,197.406C402.32,202.697 405.076,205.199 407.637,210.809C408.135,211.899 408.248,212.953 408.566,214.092C410.046,219.392 411.73,224.018 412.929,229.354C414.642,236.982 416.065,244.338 416.844,252.049C418.585,269.279 418.245,286.519 419.157,303.667C420.536,329.578 422.29,355.339 424.656,380.988C425.979,395.326 427.538,409.62 428.929,423.91C430.326,438.272 431.423,452.613 432.967,466.932L391.801,471.461C389.41,458.783 386.975,446.122 385.091,433.356C383.21,420.618 381.767,407.819 380.556,394.988C376.944,356.711 374.911,318.121 375.771,279.249C375.99,269.323 375.94,259.359 377.331,249.459C378.28,242.71 379.8,236.309 381.742,229.698C383.759,222.834 385.202,216.506 388.818,210.125C391.901,204.685 394.919,202.388 398.935,197.406Z" style="fill:rgb(152,134,109);"/>
            </g>
            <g transform="matrix(-1,0,0,1.30072,1000,-59.3644)">
                <path d="M311.319,197.406C314.031,204.195 317.057,209.317 319.188,216.75C319.64,218.326 319.73,219.872 319.995,221.501C321.19,228.822 322.664,235.898 323.655,243.582C325.043,254.351 326.333,265.19 326.982,276.37C329.298,316.286 329.75,357.362 337.486,390.184C341.376,406.689 346.383,420.953 353.737,431.314C357.865,437.13 362.373,441.665 368.821,442.871C385.34,446.031 403.024,447.816 419.789,449.088C461.976,452.291 498.645,451.266 498.645,451.266L501.355,487.127C501.355,487.127 469.813,489.865 430.575,488.58C407.785,487.833 382.489,485.479 359.198,481.17C341.39,477.791 326.453,467.81 315.186,451.661C305.615,437.943 298.388,419.28 293.859,397.43C286.57,362.266 283.228,318.267 287.349,275.793C288.456,264.372 290.485,253.33 292.986,242.449C294.752,234.76 297.01,227.733 299.185,220.476C299.667,218.869 299.955,217.325 300.627,215.791C303.774,208.604 307.532,203.827 311.319,197.406Z" style="fill:rgb(152,134,109);"/>
            </g>
            <g transform="matrix(1,0,0,1.30072,0,-59.3644)">
                <path d="M311.319,197.406C307.532,203.827 303.774,208.604 300.627,215.791C299.955,217.324 299.667,218.869 299.185,220.476C297.01,227.733 294.752,234.76 292.986,242.449C290.485,253.33 288.456,264.372 287.349,275.793C283.228,318.267 286.57,362.266 293.859,397.43C298.388,419.28 305.615,437.943 315.186,451.661C326.453,467.81 341.39,477.791 359.198,481.17C382.489,485.479 407.785,487.833 430.575,488.58C469.813,489.865 501.355,487.127 501.355,487.127L498.645,451.266C498.645,451.266 461.976,452.291 419.789,449.088C403.024,447.816 385.34,446.031 368.821,442.871C362.373,441.665 357.865,437.13 353.737,431.314C346.383,420.953 341.376,406.689 337.486,390.184C329.75,357.362 329.298,316.286 326.982,276.37C326.333,265.19 325.043,254.351 323.655,243.582C322.664,235.898 321.19,228.822 319.995,221.501C319.73,219.872 319.64,218.326 319.188,216.75C317.057,209.317 314.031,204.195 311.319,197.406Z" style="fill:rgb(152,134,109);"/>
            </g>
        </g>
    </g>
</svg>
