<?xml version="1.0" encoding="UTF-8" standalone="no"?>
<!DOCTYPE svg PUBLIC "-//W3C//DTD SVG 1.1//EN" "http://www.w3.org/Graphics/SVG/1.1/DTD/svg11.dtd">
<svg width="100%" height="100%" viewBox="0 0 1000 1000" version="1.1" xmlns="http://www.w3.org/2000/svg" xmlns:xlink="http://www.w3.org/1999/xlink" xml:space="preserve" xmlns:serif="http://www.serif.com/" style="fill-rule:evenodd;clip-rule:evenodd;stroke-linejoin:round;stroke-miterlimit:2;">
    <g transform="matrix(1.58653,0,0,1.58653,-293.267,-293.267)">
        <g>
            <g transform="matrix(1,0,0,1,-10.7366,46.6069)">
                <path d="M709.458,419.957L510.737,244.06L312.015,419.957L312.015,662.726L709.458,662.726L709.458,419.957Z" style="fill:rgb(204,195,182);"/>
            </g>
            <path d="M500,311.051L273.113,511.451L252.885,488.549L489.886,279.216C495.663,274.114 504.337,274.114 510.114,279.216L747.115,488.549L726.887,511.451L500,311.051Z" style="fill:rgb(159,96,79);"/>
        </g>
        <g>
            <g transform="matrix(1,0,0,1,-10.7283,0)">
                <g transform="matrix(0.90575,0,0,1,215.332,7.98279)">
                    <rect x="360.441" y="492.017" width="92.302" height="114.4" style="fill:rgb(83,73,59);"/>
                </g>
                <g transform="matrix(1,0,0,1,167.205,0)">
                    <path d="M410.842,494.702L410.842,627.204L421.953,627.204L421.953,494.702L410.842,494.702Z" style="fill:rgb(204,195,182);"/>
                </g>
            </g>
            <g transform="matrix(1,0,0,1,10.7973,0)">
                <g transform="matrix(0.90575,0,0,1,48.1266,7.98279)">
                    <rect x="360.441" y="492.017" width="92.302" height="114.4" style="fill:rgb(83,73,59);"/>
                </g>
                <path d="M410.842,494.702L410.842,627.204L421.953,627.204L421.953,494.702L410.842,494.702Z" style="fill:rgb(204,195,182);"/>
            </g>
            <g transform="matrix(6.12323e-17,1,-2.32058,1.42094e-16,1801.74,140.803)">
                <path d="M412.896,494.702L412.896,627.204L419.899,627.204L419.899,494.702L412.896,494.702Z" style="fill:rgb(204,195,182);"/>
            </g>
        </g>
    </g>
</svg>
