<?xml version="1.0" encoding="UTF-8" standalone="no"?>
<!DOCTYPE svg PUBLIC "-//W3C//DTD SVG 1.1//EN" "http://www.w3.org/Graphics/SVG/1.1/DTD/svg11.dtd">
<svg width="100%" height="100%" viewBox="0 0 1000 1000" version="1.1" xmlns="http://www.w3.org/2000/svg" xmlns:xlink="http://www.w3.org/1999/xlink" xml:space="preserve" xmlns:serif="http://www.serif.com/" style="fill-rule:evenodd;clip-rule:evenodd;stroke-linejoin:round;stroke-miterlimit:2;">
    <g transform="matrix(1.2855,0,0,1.2855,-142.751,-73.8178)">
        <g>
            <g transform="matrix(0.7683,0,0,1,115.85,0)">
                <path d="M500,707.169C500,707.169 600.33,716.943 697.55,681.074C802.752,642.26 828.487,535.769 817.511,480.181C802.627,404.797 728.212,333.689 667.759,323.954C547.919,304.654 500,336.131 500,336.131C500,336.131 452.081,304.654 332.241,323.954C271.788,333.689 197.373,404.797 182.489,480.181C171.513,535.769 197.248,642.26 302.45,681.074C399.67,716.943 500,707.169 500,707.169" style="fill:rgb(205,144,51);"/>
            </g>
            <path d="M500,336.131C500,336.131 374.359,295.655 336.791,429.628C299.223,563.601 357.003,650.009 395.537,676.962C436.252,705.441 500,707.169 500,707.169C500,707.169 452.005,702.526 410.85,668.468C373.418,637.491 354.008,580.494 356.943,513.039C360.058,441.435 374.747,393.444 403.094,368.039C447.522,328.225 500,336.131 500,336.131Z" style="fill:rgb(170,118,38);"/>
            <g transform="matrix(0.407765,0,0,1,296.118,0)">
                <path d="M500,336.131C500,336.131 363.11,338.365 336.791,429.628C298.171,563.551 344.397,630.514 382.931,657.467C423.646,685.946 500,707.169 500,707.169C500,707.169 475.003,699.253 433.849,665.196C396.417,634.218 380.972,580.494 383.906,513.039C387.021,441.435 390.118,397.936 419.611,372.749C457.668,340.248 500,336.131 500,336.131Z" style="fill:rgb(170,118,38);"/>
            </g>
            <g transform="matrix(-1,0,0,1,1000,0)">
                <path d="M500,336.131C500,336.131 374.359,295.655 336.791,429.628C299.223,563.601 357.003,650.009 395.537,676.962C436.252,705.441 500,707.169 500,707.169C500,707.169 452.005,702.526 410.85,668.468C373.418,637.491 354.008,580.494 356.943,513.039C360.058,441.435 374.747,393.444 403.094,368.039C447.522,328.225 500,336.131 500,336.131Z" style="fill:rgb(170,118,38);"/>
            </g>
            <g transform="matrix(-0.407765,0,0,1,703.882,0)">
                <path d="M500,336.131C500,336.131 363.11,338.365 336.791,429.628C298.171,563.551 344.397,630.514 382.931,657.467C423.646,685.946 500,707.169 500,707.169C500,707.169 475.003,699.253 433.849,665.196C396.417,634.218 380.972,580.494 383.906,513.039C387.021,441.435 390.69,398.046 419.611,372.749C459.4,337.946 500,336.131 500,336.131Z" style="fill:rgb(170,118,38);"/>
            </g>
        </g>
        <g transform="matrix(1.30059,0,0,1.30059,-150.296,-107.974)">
            <g transform="matrix(1.5721,0,0,1.5721,-287.381,-175.417)">
                <path d="M460.376,313.985C467.552,322.492 470.352,332.021 469.527,342.398C481.313,340.824 491.794,342.55 500,350.029C509.569,343.567 519.91,339.326 532.664,342.03C532.619,331.962 534.505,322.226 541.315,313.333C527.079,310.992 513.258,305.859 500,296.936C486.792,304.624 473.584,310.147 460.376,313.985Z" style="fill:rgb(83,125,53);"/>
            </g>
            <path d="M485.648,317.692C504.78,279.834 493.236,230.889 517.908,194.595L556.36,211.912C528.158,241.811 515.527,268.052 512.336,317.692C512.336,317.692 514.067,330.198 524.775,339.695C535.483,349.193 469.618,341.426 469.618,341.426C469.618,341.426 479.363,330.13 485.648,317.692Z" style="fill:url(#_Linear1);"/>
        </g>
    </g>
    <defs>
        <linearGradient id="_Linear1" x1="0" y1="0" x2="1" y2="0" gradientUnits="userSpaceOnUse" gradientTransform="matrix(-12.637,143.492,-143.492,-12.637,517.908,194.595)"><stop offset="0" style="stop-color:rgb(140,194,110);stop-opacity:1"/><stop offset="0.54" style="stop-color:rgb(128,179,98);stop-opacity:1"/><stop offset="1" style="stop-color:rgb(83,125,53);stop-opacity:1"/></linearGradient>
    </defs>
</svg>
